<svg
  data-v-2981edfc=""
  xmlns="http://www.w3.org/2000/svg"
  width="144"
  height="144"
  viewBox="0 0 144 144"
  fill="none"
  class=""
>
  <path
    d="M72.5969 3.29458L61.5048 4.4291C59.4609 4.63815 57.9735 6.46447 58.1826 8.50831L59.3171 19.6004C59.5262 21.6443 61.3525 23.1317 63.3963 22.9226L74.4884 21.7881C76.5323 21.5791 78.0197 19.7527 77.8106 17.7089L76.6761 6.61676C76.4671 4.57293 74.6407 3.08554 72.5969 3.29458Z"
    fill="#004C45"
  ></path>
  <path
    d="M69 9.55027L70.42 9.40027L70.2 7.28027L68.52 7.45027C66.5 7.74027 66.2 8.93027 66.29 10.1303L66.4 11.1903L65.01 11.3303L65.22 13.3903L66.61 13.2503L67.18 18.8003L69.26 18.5903L68.69 13.0403L70.41 12.8603L70.53 10.7603L68.48 10.9703L68.41 10.3303C68.4 10.2403 68.4 10.1503 68.41 10.0603C68.43 9.97027 68.47 9.89027 68.52 9.81027C68.57 9.74027 68.64 9.67027 68.72 9.63027C68.8 9.58027 68.89 9.55027 68.98 9.54027L69 9.55027Z"
    fill="white"
  ></path>
  <path
    d="M103.65 63.01L102.9 62.1C101.4 60.27 97.68 60.35 94.63 62.28L85.27 68.21C82.21 70.14 80.96 73.21 82.47 75.04L83.22 75.95C84.72 77.78 88.44 77.7 91.49 75.77L100.85 69.84C103.89 67.92 105.15 64.84 103.65 63.02V63.01Z"
    fill="#E3C49F"
  ></path>
  <path
    d="M104.16 65.7695C104.16 65.7695 103.29 68.9895 93.39 74.0795C91.22 75.1895 88.4 76.6795 86.25 77.8795C85.63 78.2195 86.79 79.2395 87.67 78.7095C92.44 75.8695 96.29 73.5495 99.2 71.8095C102.66 69.7395 104.03 66.9095 104.15 65.7795L104.16 65.7695Z"
    fill="#D3B798"
  ></path>
  <path
    d="M37.6 106.88C36.32 111.64 35.08 115.72 35.08 115.72L22.53 127.88C27.71 136.36 28.94 138.92 43.45 140.65L54.7 126.62C54.7 126.62 77.46 119.65 95.95 105.28C109.46 94.7696 51.99 79.5596 51.99 79.5596L37.59 106.88H37.6Z"
    fill="#E3C49F"
  ></path>
  <path
    d="M100.7 99.2004C100.7 99.2004 100.53 101.34 96.68 103.62C96.23 103.89 74.84 117.84 74.33 118.57C74.33 118.57 83.03 115.42 86.41 113.2C91.19 109.82 97.29 104.42 98.84 103.35C100.39 102.28 101.02 100.69 100.7 99.1904V99.2004Z"
    fill="#D3B798"
  ></path>
  <path
    d="M90.34 43.7305H89.74C89.4142 43.7305 89.15 43.9946 89.15 44.3205V51.6905C89.15 52.0163 89.4142 52.2805 89.74 52.2805H90.34C90.6659 52.2805 90.93 52.0163 90.93 51.6905V44.3205C90.93 43.9946 90.6659 43.7305 90.34 43.7305Z"
    fill="#004C45"
  ></path>
  <path
    d="M90.34 52.6504H89.74C89.4142 52.6504 89.15 52.9145 89.15 53.2404V57.5504C89.15 57.8762 89.4142 58.1404 89.74 58.1404H90.34C90.6659 58.1404 90.93 57.8762 90.93 57.5504V53.2404C90.93 52.9145 90.6659 52.6504 90.34 52.6504Z"
    fill="#004C45"
  ></path>
  <path
    d="M90.34 58.5H89.74C89.4142 58.5 89.15 58.7642 89.15 59.09V63.4C89.15 63.7258 89.4142 63.99 89.74 63.99H90.34C90.6659 63.99 90.93 63.7258 90.93 63.4V59.09C90.93 58.7642 90.6659 58.5 90.34 58.5Z"
    fill="#004C45"
  ></path>
  <path
    d="M88.6501 41.0699V109.94C88.6501 111.42 87.63 112.63 86.38 112.63H55.57C54.32 112.63 53.3 111.42 53.3 109.94V41.0699C53.3 39.5799 54.32 38.3799 55.57 38.3799H65.5501C65.5301 38.4699 65.52 38.5699 65.52 38.6599V39.0699C65.52 39.8499 66.07 40.4899 66.75 40.4899H75.2C75.88 40.4899 76.43 39.8499 76.43 39.0699V38.6599C76.43 38.5699 76.4201 38.4699 76.4001 38.3799H86.38C87.63 38.3799 88.6501 39.5799 88.6501 41.0699Z"
    fill="#004C45"
  ></path>
  <path
    d="M88.7601 41.0705V109.941C88.7601 111.481 87.6901 112.741 86.3801 112.741H55.5701C54.2501 112.741 53.1901 111.491 53.1901 109.941V41.0705C53.1901 39.5305 54.2601 38.2705 55.5701 38.2705H86.3801C87.7001 38.2705 88.7601 39.5205 88.7601 41.0705Z"
    fill="#F7C1B9"
  ></path>
  <path
    d="M53.1901 54.6705V41.0705C53.1901 39.5205 54.2601 38.2705 55.5701 38.2705H76.3201L53.1901 54.6705Z"
    fill="#F9D6D2"
  ></path>
  <path
    d="M88.7601 41.0703V47.0203L53.1801 71.7803V61.2703L84.8601 38.2803H86.3701C87.6901 38.2803 88.7501 39.5303 88.7501 41.0803L88.7601 41.0703Z"
    fill="#F9D6D2"
  ></path>
  <path d="M88.7601 54.8604L53.1901 80.3204V84.7703L88.7601 59.3004V54.8604Z" fill="#F9D6D2"></path>
  <path
    d="M86.45 36.29H55.5C53.52 36.29 51.91 37.9 51.91 39.88V111.12C51.91 113.1 53.52 114.71 55.5 114.71H86.45C88.43 114.71 90.04 113.1 90.04 111.12V39.88C90.04 37.9 88.43 36.29 86.45 36.29ZM88.65 109.94C88.65 111.42 87.63 112.63 86.38 112.63H55.57C54.32 112.63 53.3 111.42 53.3 109.94V41.07C53.3 39.58 54.32 38.38 55.57 38.38H65.55C65.53 38.47 65.52 38.57 65.52 38.66V39.07C65.52 39.85 66.07 40.49 66.75 40.49H75.2C75.88 40.49 76.43 39.85 76.43 39.07V38.66C76.43 38.57 76.42 38.47 76.4 38.38H86.38C87.63 38.38 88.65 39.58 88.65 41.07V109.94Z"
    fill="#004C45"
  ></path>
  <path
    d="M50.35 116.18C52.73 111.86 53.13 106.37 51.7 99.8003L57.11 90.9403C57.11 90.9403 62.33 79.1003 58.61 75.4503C54.89 71.8003 52.53 78.5203 52.53 78.5203C52.53 78.5203 48.05 88.9603 44.48 92.1803C40.91 95.4103 36.74 106.27 36.61 111.76L50.36 116.17L50.35 116.18Z"
    fill="#E3C49F"
  ></path>
  <path
    d="M51.7099 99.8103L57.2899 90.7303C57.2899 90.7303 62.5099 78.8903 58.7899 75.2403C57.7899 74.2603 56.8799 74.0303 56.0999 74.2203C56.6099 74.3503 57.1399 74.6703 57.7099 75.2303C61.4299 78.8803 56.2099 90.7203 56.2099 90.7203L50.9399 99.7303L51.7099 99.8203V99.8103Z"
    fill="#D3B798"
  ></path>
  <path
    d="M58.6099 75.4602C58.6099 75.4602 58.0199 82.2102 55.0199 81.9802C52.0099 81.7502 51.9399 79.8702 51.9399 79.8702C51.9399 79.8702 53.8699 73.4202 56.0999 73.7802C58.3299 74.1402 58.6199 75.4602 58.6199 75.4602H58.6099Z"
    fill="#549F98"
  ></path>
  <path
    d="M97.08 78.2502C95.83 75.6502 92.52 74.6802 89.73 76.2702L80.7 81.4502C77.91 83.0502 77.26 86.3402 79.07 88.5802C80.42 90.7202 83.54 91.3102 86.01 89.9002L95.02 84.7202C97.5 83.2902 98.42 80.3802 97.08 78.2402V78.2502Z"
    fill="#E3C49F"
  ></path>
  <path
    d="M87.62 89.2697C91.02 87.4697 93.17 86.0397 94.94 85.0097C96.71 83.9797 97.69 82.1497 97.62 81.2197C97.62 81.2197 87.58 89.1497 83.88 90.6497L87.62 89.2597V89.2697Z"
    fill="#D3B798"
  ></path>
  <path
    d="M83.4 97.2596C81.73 95.0496 82.12 91.8196 84.58 90.3796L92.77 85.4896C98.05 82.4396 103.01 90.7296 97.82 93.9396L89.63 98.8296C87.48 100.12 84.69 99.4096 83.4 97.2596Z"
    fill="#E3C49F"
  ></path>
  <path
    d="M90.52 98.2897C93.84 96.2297 96.05 95.0297 97.81 93.9297C99.57 92.8297 100.11 91.2497 100 89.7197L90.52 98.2897Z"
    fill="#D3B798"
  ></path>
  <path
    d="M85.69 105.98C84.52 104.21 85.02 101.82 86.79 100.66L94.21 95.7899C95.98 94.6299 98.37 95.1199 99.53 96.8899L100.14 97.8099C101.3 99.5799 100.81 101.97 99.04 103.13L91.62 108C88.05 110.34 85.69 105.97 85.69 105.97V105.98Z"
    fill="#E3C49F"
  ></path>
  <path
    d="M78.98 85.9003C78.85 85.3503 79.1 84.7803 79.59 84.5103C80.49 84.0103 82.2 83.1303 83.49 82.8703C83.76 82.8103 84.05 82.9503 84.2 83.1803C84.67 83.9203 85.65 85.5503 85.78 86.4703C85.8 86.6003 85.74 86.7303 85.63 86.8003C84.96 87.2003 83.15 88.6003 82.43 89.0503C81.45 89.6703 79.38 87.5903 78.97 85.8903L78.98 85.9003Z"
    fill="#549F98"
  ></path>
  <path
    d="M83.48 94.3102C83.36 93.8202 83.63 93.2902 84.13 93.0302C85.03 92.5502 86.75 91.7002 88.05 91.4302C88.31 91.3702 88.6 91.4702 88.75 91.6902C89.19 92.3402 90.12 93.7902 90.22 94.6302C90.24 94.7502 90.17 94.8702 90.06 94.9302C89.38 95.3102 87.55 96.6302 86.83 97.0602C85.84 97.6502 83.85 95.8302 83.5 94.3002L83.48 94.3102Z"
    fill="#549F98"
  ></path>
  <path
    d="M86.44 104.14C86.34 103.7 86.58 103.23 87.02 102.99C87.84 102.56 89.38 101.79 90.55 101.55C90.78 101.5 91.04 101.59 91.18 101.78C91.58 102.37 92.42 103.67 92.5 104.43C92.51 104.54 92.45 104.65 92.36 104.7C91.75 105.04 90.1 106.23 89.45 106.62C88.55 107.15 86.77 105.51 86.45 104.14H86.44Z"
    fill="#549F98"
  ></path>
  <path
    d="M108.87 61.2501L107.258 72.2223C106.961 74.2385 108.356 76.1132 110.372 76.4095L121.344 78.0219C123.36 78.3182 125.235 76.9239 125.531 74.9077L127.144 63.9355C127.44 61.9192 126.046 60.0445 124.03 59.7482L113.057 58.1358C111.041 57.8395 109.166 59.2338 108.87 61.2501Z"
    fill="#004C45"
  ></path>
  <path
    d="M119.6 68.9694C119.6 68.9694 118.9 68.5294 118.78 68.4694C118.73 68.4494 118.68 68.4194 118.62 68.4094C118.52 68.3994 118.43 68.4294 118.36 68.4994C118.27 68.5894 118.02 68.7794 117.94 68.8394C117.93 68.8394 117.92 68.8594 117.91 68.8594C117.91 68.8594 117.8 68.7994 117.76 68.7794C117.02 68.3594 116.53 67.5494 116.47 67.4194C116.47 67.3994 116.47 67.3894 116.47 67.3894C116.47 67.3894 116.61 67.2794 116.66 67.2394C116.68 67.2194 116.89 67.0094 116.89 67.0094C116.99 66.8894 116.94 66.7594 116.92 66.7194C116.91 66.6894 116.7 65.9794 116.67 65.9094C116.62 65.7294 116.52 65.6394 116.38 65.6194C116.37 65.6194 115.88 65.5994 115.7 65.6594C115.51 65.7294 115.17 65.9994 115.09 66.5494C115.02 67.0394 115.3 67.5594 115.43 67.7594C115.43 67.7594 116.56 69.2894 117.25 69.6594C117.92 70.0094 118.25 70.0894 118.44 70.1194C118.52 70.1294 118.68 70.1394 118.68 70.1394C118.93 70.1594 119.5 69.9894 119.67 69.7094C119.8 69.4894 119.86 69.2294 119.81 69.1294C119.78 69.0594 119.7 69.0194 119.62 68.9594L119.6 68.9694Z"
    fill="white"
  ></path>
  <path
    d="M118.09 62.6102C115.12 62.1702 112.35 64.2203 111.92 67.1603C111.78 68.1103 111.9 69.0802 112.26 69.9702L110.93 72.5602C110.93 72.5602 110.91 72.6702 110.94 72.7102C110.98 72.7702 111.06 72.7702 111.08 72.7702L114.06 72.2802C114.78 72.8102 115.62 73.1602 116.52 73.2902C119.49 73.7302 122.26 71.6802 122.69 68.7402C123.12 65.8002 121.06 63.0402 118.09 62.6002V62.6102ZM116.68 72.1902C115.84 72.0702 115.07 71.7102 114.44 71.1502C114.42 71.1302 114.35 71.1102 114.32 71.1202L112.83 71.3602L113.49 70.0702C113.49 70.0702 113.51 69.9802 113.49 69.9402C113.07 69.1402 112.91 68.2402 113.04 67.3402C113.38 65.0102 115.57 63.3902 117.93 63.7402C120.29 64.0902 121.92 66.2602 121.57 68.6002C121.23 70.9302 119.04 72.5502 116.68 72.2002V72.1902Z"
    fill="white"
  ></path>
  <path
    d="M33.4507 22.7802L23.231 27.0866C21.353 27.878 20.4721 30.042 21.2635 31.92L25.5699 42.1397C26.3613 44.0177 28.5253 44.8986 30.4033 44.1072L40.623 39.8007C42.501 39.0094 43.3819 36.8454 42.5905 34.9674L38.284 24.7477C37.4927 22.8697 35.3287 21.9888 33.4507 22.7802Z"
    fill="#004C45"
  ></path>
  <path
    d="M32.0299 33.7001L26.0699 32.7701C26.0699 32.6901 26.0899 32.6101 26.1199 32.5301C26.1899 32.3501 26.3499 32.1901 26.5499 32.1101L34.7199 28.6701C34.9099 28.5901 35.1099 28.5801 35.2899 28.6401C35.3799 28.6701 35.4599 28.7201 35.5299 28.7801L32.0299 33.7001Z"
    fill="white"
  ></path>
  <path
    d="M37.48 35.2096L29.31 38.6496C29.12 38.7296 28.92 38.7396 28.74 38.6796C28.58 38.6196 28.46 38.5196 28.4 38.3796L26.37 33.5696L32.15 34.4796C32.29 34.4996 32.43 34.4396 32.51 34.3296L35.89 29.5596L37.92 34.3596C38.04 34.6696 37.84 35.0496 37.48 35.2096Z"
    fill="white"
  ></path>
  <path
    d="M104.854 23.5139L100.533 33.7276C99.7391 35.6045 100.617 37.7696 102.494 38.5636L112.708 42.8844C114.584 43.6783 116.75 42.8005 117.544 40.9236L121.864 30.7099C122.658 28.833 121.78 26.6678 119.904 25.8738L109.69 21.5531C107.813 20.7591 105.648 21.637 104.854 23.5139Z"
    fill="#004C45"
  ></path>
  <path
    fill-rule="evenodd"
    clip-rule="evenodd"
    d="M113.22 27.0606C110.49 25.9006 107.4 27.0206 106.33 29.5506C105.72 30.9906 105.89 32.5807 106.66 33.9007L105.92 35.6507L108 35.4406C108.41 35.7606 108.86 36.0307 109.33 36.2306C112.06 37.3906 115.15 36.2707 116.22 33.7407C117.29 31.2107 115.94 28.2106 113.21 27.0606H113.22ZM111.1 33.4507L110.41 31.5706L107.38 31.8707L111.31 30.1406L112.03 32.0306L115.03 31.7106L111.1 33.4406V33.4507Z"
    fill="white"
  ></path>
  <path
    d="M19.7742 62.0267L16.9525 72.7517C16.434 74.7226 17.6114 76.7407 19.5822 77.2592L30.3073 80.0808C32.2781 80.5994 34.2962 79.422 34.8147 77.4511L37.6364 66.7261C38.1549 64.7552 36.9775 62.7372 35.0067 62.2187L24.2816 59.397C22.3108 58.8785 20.2927 60.0559 19.7742 62.0267Z"
    fill="#004C45"
  ></path>
  <path
    d="M26.6301 63.6903C26.0401 63.5503 25.6201 63.5203 25.2401 63.5603C24.8401 63.5903 24.4901 63.6903 24.1001 63.9003C23.7101 64.1103 23.4401 64.3603 23.1901 64.6803C22.9501 64.9903 22.7501 65.3503 22.5501 65.9203C22.3501 66.4903 21.3801 69.8103 21.2401 70.3903C21.1001 70.9803 21.0701 71.4003 21.1101 71.7803C21.1401 72.1803 21.2401 72.5303 21.4501 72.9203C21.6601 73.3103 21.9101 73.5803 22.2301 73.8303C22.5401 74.0703 22.9001 74.2703 23.4701 74.4703C24.0401 74.6703 27.3601 75.6403 27.9401 75.7803C28.5301 75.9203 28.9501 75.9503 29.3301 75.9103C29.7301 75.8803 30.0801 75.7803 30.4701 75.5703C30.8601 75.3603 31.1301 75.1103 31.3801 74.7903C31.6201 74.4803 31.8201 74.1203 32.0201 73.5503C32.2201 72.9803 33.1901 69.6603 33.3301 69.0803C33.4701 68.4903 33.5001 68.0703 33.4601 67.6903C33.4301 67.2903 33.3301 66.9403 33.1201 66.5503C32.9101 66.1603 32.6601 65.8903 32.3401 65.6403C32.0301 65.4003 31.6701 65.2003 31.1001 65.0003C30.5301 64.8003 27.2101 63.8303 26.6301 63.6903ZM23.8001 73.5202C23.2801 73.3402 23.0201 73.1703 22.8501 73.0403C22.6301 72.8703 22.4801 72.7002 22.3401 72.4502C22.2101 72.2002 22.1401 71.9903 22.1201 71.7103C22.1001 71.5003 22.1001 71.1803 22.2301 70.6503C22.3701 70.0703 23.3201 66.8303 23.5101 66.2603C23.6901 65.7403 23.8601 65.4803 23.9901 65.3103C24.1601 65.0903 24.3301 64.9403 24.5801 64.8003C24.8301 64.6703 25.0401 64.6003 25.3201 64.5803C25.5301 64.5603 25.8501 64.5603 26.3801 64.6903C26.9601 64.8303 30.2001 65.7803 30.7701 65.9703C31.2901 66.1503 31.5501 66.3203 31.7201 66.4502C31.9401 66.6202 32.0901 66.7903 32.2301 67.0403C32.3601 67.2903 32.4301 67.5003 32.4501 67.7803C32.4701 67.9903 32.4701 68.3102 32.3401 68.8402C32.2001 69.4202 31.2501 72.6603 31.0601 73.2303C30.8801 73.7503 30.7101 74.0103 30.5801 74.1803C30.4101 74.4003 30.2401 74.5503 29.9901 74.6903C29.7401 74.8203 29.5301 74.8903 29.2501 74.9103C29.0401 74.9303 28.7201 74.9303 28.1901 74.8003C27.6101 74.6603 24.3701 73.7102 23.8001 73.5202ZM30.3801 67.5003C30.2701 67.8603 30.4801 68.2402 30.8401 68.3402C31.2001 68.4502 31.5801 68.2403 31.6801 67.8802C31.7901 67.5202 31.5801 67.1403 31.2201 67.0403C30.8601 66.9403 30.4801 67.1403 30.3801 67.5003ZM24.5001 68.9203C24.0501 70.4603 24.9301 72.0702 26.4701 72.5202C28.0101 72.9702 29.6201 72.0903 30.0701 70.5503C30.5201 69.0103 29.6401 67.4002 28.1001 66.9502C26.5601 66.5002 24.9501 67.3803 24.5001 68.9203ZM25.4801 69.2103C25.7701 68.2103 26.8201 67.6403 27.8201 67.9303C28.8201 68.2203 29.3901 69.2702 29.1001 70.2702C28.8101 71.2702 27.7601 71.8403 26.7601 71.5503C25.7601 71.2603 25.1901 70.2103 25.4801 69.2103Z"
    fill="white"
  ></path>
</svg>
